<?xml version="1.0" encoding="UTF-8"?>
<svg width="161px" height="60px" viewBox="0 0 161 60" version="1.1" xmlns="http://www.w3.org/2000/svg" xmlns:xlink="http://www.w3.org/1999/xlink">
    <!-- Generator: Sketch 63.1 (92452) - https://sketch.com -->
    <title>maze</title>
    <desc>Created with Sketch.</desc>
    <g id="Page-1" stroke="none" stroke-width="1" fill="none" fill-rule="evenodd">
        <path d="M6.05555556,60 C8.72222222,60 10.2555556,58.6666667 10.6555556,56 L10.6555556,56 L15.9555556,18.4 C16.1555556,17.0666667 16.8555556,16.0666667 18.0555556,15.4 L18.0555556,15.4 L23.3555556,12.5 C25.8222222,11.1 26.8555556,11.7333333 26.4555556,14.4 L26.4555556,14.4 L20.6555556,56 C20.2555556,58.6666667 21.3888889,60 24.0555556,60 L24.0555556,60 L26.0555556,60 C28.7222222,60 30.2555556,58.6666667 30.6555556,56 L30.6555556,56 L35.9555556,18.4 C36.1555556,17.0666667 36.8555556,16.0666667 38.0555556,15.4 L38.0555556,15.4 L43.3555556,12.5 C45.8222222,11.1 46.8555556,11.7333333 46.4555556,14.4 L46.4555556,14.4 L40.6555556,56 C40.2555556,58.6666667 41.3888889,60 44.0555556,60 L44.0555556,60 L46.0555556,60 C48.7222222,60 50.2555556,58.6666667 50.6555556,56 L50.6555556,56 L56.8555556,12 C57.4555556,7.8 57.2222222,4.75 56.1555556,2.85 C55.0888889,0.95 52.8555556,0 49.4555556,0 C48.1222222,0 46.8722222,0.216666667 45.7055556,0.65 C44.5388889,1.08333333 43.4388889,1.61666667 42.4055556,2.25 C41.3722222,2.88333333 40.4055556,3.53333333 39.5055556,4.2 C38.6055556,4.86666667 37.7555556,5.43333333 36.9555556,5.9 C36.6888889,3.9 35.9722222,2.41666667 34.8055556,1.45 C33.6388889,0.483333333 31.8555556,0 29.4555556,0 C28.1222222,0 26.8888889,0.216666667 25.7555556,0.65 C24.6222222,1.08333333 23.5555556,1.6 22.5555556,2.2 C21.5555556,2.8 20.6388889,3.43333333 19.8055556,4.1 C18.9722222,4.76666667 18.1555556,5.33333333 17.3555556,5.8 L17.3555556,5.8 L16.9555556,4 C16.8222222,3.33333333 16.6888889,2.75 16.5555556,2.25 C16.4222222,1.75 16.2555556,1.33333333 16.0555556,1 C15.8555556,0.666666667 15.5555556,0.416666667 15.1555556,0.25 C14.7555556,0.0833333333 14.2222222,0 13.5555556,0 L13.5555556,0 L12.5555556,0 C9.88888889,0 8.35555556,1.33333333 7.95555556,4 L7.95555556,4 L0.655555556,56 C0.255555556,58.6666667 1.38888889,60 4.05555556,60 L4.05555556,60 L6.05555556,60 Z M82.7777778,60 C84.1777778,60 85.2277778,59.6833333 85.9277778,59.05 C86.6277778,58.4166667 87.0777778,57.4 87.2777778,56 L87.2777778,56 L94.4777778,5 C94.9444444,1.66666667 93.5111111,0 90.1777778,0 L90.1777778,0 L77.6777778,0 C73.4777778,0 70.2944444,0.95 68.1277778,2.85 C65.9611111,4.75 64.5777778,7.8 63.9777778,12 L63.9777778,12 L58.6777778,50 C58.1444444,53.5333333 58.4444444,56.0833333 59.5777778,57.65 C60.7111111,59.2166667 62.9777778,60 66.3777778,60 C67.6444444,60 68.8277778,59.7833333 69.9277778,59.35 C71.0277778,58.9166667 72.0444444,58.4 72.9777778,57.8 C73.9111111,57.2 74.7777778,56.5666667 75.5777778,55.9 C76.3777778,55.2333333 77.1777778,54.6666667 77.9777778,54.2 L77.9777778,54.2 L78.2777778,56 C78.5444444,57.3333333 78.8444444,58.3333333 79.1777778,59 C79.5111111,59.6666667 80.3777778,60 81.7777778,60 L81.7777778,60 L82.7777778,60 Z M72.3777778,47.5 C69.9111111,48.9 68.8777778,48.2666667 69.2777778,45.6 L69.2777778,45.6 L73.8777778,13 C74.0777778,11.6 74.5277778,10.5833333 75.2277778,9.95 C75.9277778,9.31666667 76.9777778,9 78.3777778,9 L78.3777778,9 L81.8777778,9 C83.2777778,9 83.8777778,9.66666667 83.6777778,11 L83.6777778,11 L79.3777778,41.6 C79.1777778,42.8666667 78.4777778,43.8666667 77.2777778,44.6 L77.2777778,44.6 L72.3777778,47.5 Z M116.2,60 C117.533333,60 118.3,59.3333333 118.5,58 L118.5,58 L119.2,53 C119.4,51.6666667 118.833333,51 117.5,51 L117.5,51 L106.5,51 C105.766667,51 105.2,50.85 104.8,50.55 C104.4,50.25 104.366667,49.7333333 104.7,49 L104.7,49 L126.8,3.9 C127.466667,2.56666667 127.533333,1.58333333 127,0.95 C126.466667,0.316666667 125.666667,0 124.6,0 L124.6,0 L102.6,0 C101.333333,0 100.6,0.666666667 100.4,2 L100.4,2 L99.7,7 C99.5,8.33333333 100.066667,9 101.4,9 L101.4,9 L112.4,9 C113.133333,9 113.683333,9.15 114.05,9.45 C114.416667,9.75 114.433333,10.2666667 114.1,11 L114.1,11 L92,56.1 C91.3333333,57.4333333 91.2666667,58.4166667 91.8,59.05 C92.3333333,59.6833333 93.1333333,60 94.2,60 L94.2,60 L116.2,60 Z M148.222222,60 C151.022222,60 152.555556,58.6666667 152.822222,56 L152.822222,56 L152.922222,55 C153.188889,52.3333333 152.055556,51 149.522222,51 L149.522222,51 L138.522222,51 C137.188889,51 136.272222,50.7333333 135.772222,50.2 C135.272222,49.6666667 135.022222,48.8666667 135.022222,47.8 C135.022222,46.6666667 135.188889,45.8166667 135.522222,45.25 C135.855556,44.6833333 136.422222,44.1666667 137.222222,43.7 L137.222222,43.7 L143.322222,40.2 C144.922222,39.2666667 146.538889,38.4166667 148.172222,37.65 C149.805556,36.8833333 151.305556,35.9833333 152.672222,34.95 C154.038889,33.9166667 155.205556,32.6666667 156.172222,31.2 C157.138889,29.7333333 157.788889,27.8 158.122222,25.4 L158.122222,25.4 L159.922222,12 C160.522222,7.8 159.972222,4.75 158.272222,2.85 C156.572222,0.95 153.522222,0 149.122222,0 L149.122222,0 L143.622222,0 C139.422222,0 136.238889,0.95 134.072222,2.85 C131.905556,4.75 130.522222,7.8 129.922222,12 L129.922222,12 L124.922222,48 C124.322222,52.2 124.822222,55.25 126.422222,57.15 C128.022222,59.05 130.955556,60 135.222222,60 L135.222222,60 L148.222222,60 Z M138.822222,32.4 C137.555556,33.0666667 137.022222,32.7333333 137.222222,31.4 L137.222222,31.4 L139.822222,13 C140.222222,10.3333333 141.755556,9 144.422222,9 L144.422222,9 L145.922222,9 C148.922222,9 150.222222,10.3333333 149.822222,13 L149.822222,13 L148.322222,23.4 C148.122222,24.6666667 147.855556,25.65 147.522222,26.35 C147.188889,27.05 146.788889,27.6333333 146.322222,28.1 C145.855556,28.5666667 145.322222,28.9333333 144.722222,29.2 C144.122222,29.4666667 143.488889,29.8 142.822222,30.2 L142.822222,30.2 L138.822222,32.4 Z" id="maze" fill="#004aad" fill-rule="nonzero"></path>
    </g>
</svg>